<svg id="Layer_1" data-name="Layer 1" xmlns="http://www.w3.org/2000/svg" viewBox="0 0 122.02 70.75">
  <title>left eye</title>
  <path d="M65.5,99.5c1.12-1.37,2.79-3.29,5-5.46,4.34-4.35,18.68-18.33,42-22.54,30.58-5.51,53.46,9.84,56,11.87l1.35,1.09c4.51,3.86,8.54,9.49,8.67,12,.39,8.06-36.44,24.77-75,18A104.17,104.17,0,0,1,65.5,99.5Z" transform="translate(-56.99 -45.83)" fill="#fff" stroke="#000" stroke-miterlimit="10"/>
  <path d="M126,116a26.85,26.85,0,0,0,21.53-43.08,84.32,84.32,0,0,0-33.76-2A69.45,69.45,0,0,0,104.39,73,26.85,26.85,0,0,0,126,116Z" transform="translate(-56.99 -45.83)"/>
  <path d="M59,89c3.63-3.86,24.5-24.5,61.5-26.5,32.76-1.77,53.74,19.83,58,24" transform="translate(-56.99 -45.83)" fill="none" stroke="#000" stroke-miterlimit="10"/>
  <path d="M65.5,61.5" transform="translate(-56.99 -45.83)" fill="#fff" stroke="#000" stroke-miterlimit="10"/>
  <circle cx="137" cy="85" r="6" transform="translate(-63.45 -34.39) rotate(-4.67)" fill="#fff"/>
  <path d="M70.5,93.5c-1.31-.58-9.12-4.17-12-13a21.46,21.46,0,0,1,0-13" transform="translate(-56.99 -45.83)" fill="none" stroke="#000" stroke-miterlimit="10"/>
  <path d="M102,74c-.76-.81-5.25-5.78-5-15.05a31,31,0,0,1,3.35-12.89" transform="translate(-56.99 -45.83)" fill="none" stroke="#000" stroke-miterlimit="10"/>
  <path d="M88.83,80.21c-.89-.69-6.2-5-7.22-14a28.58,28.58,0,0,1,1.62-12.9" transform="translate(-56.99 -45.83)" fill="none" stroke="#000" stroke-miterlimit="10"/>
  <path d="M116.2,72.41a17.44,17.44,0,0,1-7-11.9,18.82,18.82,0,0,1,1.78-10.38" transform="translate(-56.99 -45.83)" fill="none" stroke="#000" stroke-miterlimit="10"/>
  <path d="M79.52,85.72a17,17,0,0,1-8.39-21.11" transform="translate(-56.99 -45.83)" fill="none" stroke="#000" stroke-miterlimit="10"/>
</svg>
