<svg id="Layer_1" data-name="Layer 1" xmlns="http://www.w3.org/2000/svg" viewBox="0 0 122.02 70.75">
  <title>right eye</title>
  <path d="M177.49,140.5c-1.12-1.37-2.79-3.29-5-5.46-4.34-4.35-18.68-18.33-42-22.54-30.58-5.51-53.46,9.84-56,11.87l-1.35,1.09c-4.51,3.86-8.54,9.49-8.67,12-.39,8.06,36.44,24.77,75,18A104.17,104.17,0,0,0,177.49,140.5Z" transform="translate(-63.99 -86.83)" fill="#fff" stroke="#000" stroke-miterlimit="10"/>
  <path d="M117,157a26.85,26.85,0,0,1-21.53-43.08,84.32,84.32,0,0,1,33.76-2A69.45,69.45,0,0,1,138.6,114,26.85,26.85,0,0,1,117,157Z" transform="translate(-63.99 -86.83)"/>
  <path d="M184,130c-3.63-3.86-24.5-24.5-61.5-26.5-32.76-1.77-53.74,19.83-58,24" transform="translate(-63.99 -86.83)" fill="none" stroke="#000" stroke-miterlimit="10"/>
  <path d="M177.49,102.5" transform="translate(-63.99 -86.83)" fill="#fff" stroke="#000" stroke-miterlimit="10"/>
  <circle cx="105.99" cy="126" r="6" transform="translate(-92.21 134.54) rotate(-85.33)" fill="#fff"/>
  <path d="M172.49,134.5c1.31-.58,9.12-4.17,12-13a21.46,21.46,0,0,0,0-13" transform="translate(-63.99 -86.83)" fill="none" stroke="#000" stroke-miterlimit="10"/>
  <path d="M141,115c.76-.81,5.25-5.78,5-15.05a31,31,0,0,0-3.35-12.89" transform="translate(-63.99 -86.83)" fill="none" stroke="#000" stroke-miterlimit="10"/>
  <path d="M154.16,121.21c.89-.69,6.2-5,7.22-14a28.58,28.58,0,0,0-1.62-12.9" transform="translate(-63.99 -86.83)" fill="none" stroke="#000" stroke-miterlimit="10"/>
  <path d="M126.78,113.41a17.44,17.44,0,0,0,7-11.9A18.82,18.82,0,0,0,132,91.13" transform="translate(-63.99 -86.83)" fill="none" stroke="#000" stroke-miterlimit="10"/>
  <path d="M163.47,126.72a17,17,0,0,0,8.39-21.11" transform="translate(-63.99 -86.83)" fill="none" stroke="#000" stroke-miterlimit="10"/>
</svg>
